<svg data-name="Calque 1" xmlns="http://www.w3.org/2000/svg" viewBox="0 0 133.42 110.81">
  <path d="M70.75 110.81H5.28A5.29 5.29 0 0 1 0 105.53V20.71a5.29 5.29 0 0 1 5.28-5.28h53.1a2.5 2.5 0 0 1 0 5H5.28a.29.29 0 0 0-.28.28v84.82a.29.29 0 0 0 .28.28h65.47a.29.29 0 0 0 .28-.28V94.02a2.5 2.5 0 0 1 5 0v11.51a5.29 5.29 0 0 1-5.28 5.28z" fill="#d10023"/>
  <path d="M37.44 60.19a14.67 14.67 0 1 1 14.67-14.66 14.68 14.68 0 0 1-14.67 14.66zm0-24.33a9.67 9.67 0 1 0 9.67 9.67 9.68 9.68 0 0 0-9.67-9.65zM54.99 75.78H19.24a2.5 2.5 0 0 1 0-5h35.75a2.5 2.5 0 0 1 0 5zM54.99 91.38H19.24a2.5 2.5 0 0 1 0-5h35.75a2.5 2.5 0 0 1 0 5z" fill="#d10023"/>
  <path d="M125.25 95.38H65.56a8.19 8.19 0 0 1-8.17-8.17v-79A8.19 8.19 0 0 1 65.56.04h59.69a8.18 8.18 0 0 1 8.17 8.17v79a8.18 8.18 0 0 1-8.17 8.17zM65.56 5a3.17 3.17 0 0 0-3.17 3.17v79a3.17 3.17 0 0 0 3.17 3.17h59.69a3.17 3.17 0 0 0 3.17-3.17v-79A3.17 3.17 0 0 0 125.25 5z"/>
  <path d="M94.84 44.76A14.67 14.67 0 1 1 109.5 30.1a14.68 14.68 0 0 1-14.66 14.66zm0-24.33a9.67 9.67 0 1 0 9.66 9.67 9.68 9.68 0 0 0-9.66-9.67zM112.38 60.35H76.63a2.5 2.5 0 0 1 0-5h35.75a2.5 2.5 0 0 1 0 5zM112.38 75.95H76.63a2.5 2.5 0 0 1 0-5h35.75a2.5 2.5 0 0 1 0 5z"/>
</svg>
