<svg id="Capa_1" data-name="Capa 1" xmlns="http://www.w3.org/2000/svg" viewBox="0 0 512 512">
  <defs>
    <style>
      .cls-1{fill:#da003c}
    </style>
  </defs>
  <path class="cls-1" d="M434.11 281.65L309.05 179.22l-10.17 14.08L430.64 302a14.42 14.42 0 0 1 .73 20.39l-4.06 4.36a14.63 14.63 0 0 1-20.5.75l-68.53-63.4-11.86 12.69 73.36 68a14.42 14.42 0 0 1 .75 20.41l-4 4.36a14.62 14.62 0 0 1-20.49.75l-68.55-63.38-11.89 12.65 60.84 56.26A14.42 14.42 0 0 1 357 396l-4 4.4a14.63 14.63 0 0 1-20.51.76l-60.75-56.06-11.84 12.7.22.21 30.41 28.07a14.28 14.28 0 0 1 .26 19.76l-4.06 4.37a14.59 14.59 0 0 1-20.46.74l-26.48-24.52-11 13.53 25.55 23.65a32.06 32.06 0 0 0 45.13-1.61l4.08-4.36a31.5 31.5 0 0 0 7.15-12.93l9.9 9.13a32.1 32.1 0 0 0 45.11-1.66l4.05-4.37a31.34 31.34 0 0 0 8.13-17.52 32.49 32.49 0 0 0 7.93 1.12 32 32 0 0 0 23.39-10.11l4.07-4.37a31.62 31.62 0 0 0 8.5-21.6 32.49 32.49 0 0 0-.87-7.13 31.61 31.61 0 0 0 19.09-9.68l4.08-4.37a31.74 31.74 0 0 0-1.66-44.89l-7.63-7.05"/>
  <path d="M62 314.87a14.49 14.49 0 0 1-10-3.95l-4.32-4.1a14.44 14.44 0 0 1-.5-20.41l43.58-45.47a14.62 14.62 0 0 1 20.51-.49l4.3 4.11S120 251.15 120 255a14.37 14.37 0 0 1-2.57 8.16l-47 49a14.65 14.65 0 0 1-8.43 2.71zm34.81 45.36a14.63 14.63 0 0 1-20.51.48L72 356.6a14.49 14.49 0 0 1-.49-20.4s58.09-60.47 58.58-61.05a14.56 14.56 0 0 1 20-.1l4.33 4.12a14.46 14.46 0 0 1 .48 20.41zm47.6 25.71a14.61 14.61 0 0 1-20.49.48l-4.34-4.11a14.35 14.35 0 0 1-1.27-19.44l40.45-42.22a14.5 14.5 0 0 1 19.7.2l4.34 4.15a14.44 14.44 0 0 1 .49 20.4zm76.86-4.46l-24.54 25.62a14.62 14.62 0 0 1-20.5.48l-4.33-4.11a14.45 14.45 0 0 1-.49-20.41l24.53-25.61a14.63 14.63 0 0 1 20.52-.49l4.34 4.12a14.44 14.44 0 0 1 .47 20.4zm17.81 4.41a31.27 31.27 0 0 0-6.27-37.34l-4.34-4.12a31.92 31.92 0 0 0-22-8.74c-.62 0-1.23.14-1.83.18v-.44c0-8.35-9.86-23-9.86-23l-4.33-4.11a31.84 31.84 0 0 0-16.05-8.18 31.32 31.32 0 0 0-8-33.5l-4.33-4.12a32 32 0 0 0-22-8.75c-.92 0-1.82.19-2.74.27a31.6 31.6 0 0 0-9.76-22l-4.32-4.1A32.06 32.06 0 0 0 78.19 229l-10.28 10.73-12.06 12.53-21.27 22.2a31.69 31.69 0 0 0 1.08 44.89l4.32 4.1a31.73 31.73 0 0 0 14.07 7.62A31.32 31.32 0 0 0 60 369.13l4.33 4.12a32.12 32.12 0 0 0 34.47 6.23 31.26 31.26 0 0 0 8.82 15.36l4.33 4.12a32 32 0 0 0 39.7 3.41 31.48 31.48 0 0 0 8.23 13.63l4.33 4.12a32.07 32.07 0 0 0 45.11-1.07l18.81-19.63zm70-206.67c-7.55-5.34-16.79-7.65-25.92-7.69a43.83 43.83 0 0 0-22.36 5.74l-16.08 9.67a16.32 16.32 0 0 1-8.4 2.24 17.37 17.37 0 0 1-13.82-6.6l-3.54-4.77a13.78 13.78 0 0 1 3.16-19.63l47.58-33.43c4.11-3 11.43-5.07 18.38-5a29.51 29.51 0 0 1 12.6 2.51l38.7 18.74a50 50 0 0 0 21.55 4.49c9.64 0 19.38-2.14 27.4-7.07l39.57-24.62a16.38 16.38 0 0 1 8.71-2.4 17.57 17.57 0 0 1 13.73 6.36l40.57 51.91a19 19 0 0 1 3.69 11.52A19.21 19.21 0 0 1 490 194l-68.65 75.91 12.73 11.79L503 205.54a37.22 37.22 0 0 0 1.64-46.54l-40.57-51.9a34.88 34.88 0 0 0-27.47-13 33.8 33.8 0 0 0-17.94 5l-39.56 24.61c-4.16 2.66-11.29 4.48-18.18 4.43a33.14 33.14 0 0 1-13.92-2.73l-38.73-18.77a46.6 46.6 0 0 0-20.27-4.25c-10.06 0-20.24 2.52-28.43 8.19l-4.52 3.17L239 125.12 212.06 144a31.08 31.08 0 0 0-7.1 44.12l3.56 4.78a34.76 34.76 0 0 0 27.79 13.61 33.68 33.68 0 0 0 17.38-4.74l16.1-9.66a26.37 26.37 0 0 1 13.36-3.25c6 0 12.09 1.74 15.74 4.42z"/>
  <path class="cls-1" d="M129.14 115.36l-26.41-11.26a38.54 38.54 0 0 0-15.07-2.94 46 46 0 0 0-17.14 3.37 38.89 38.89 0 0 0-14.46 10L8 168.33A31.21 31.21 0 0 0 11 213l44.85 38.27 12.06-12.53-45.55-38.91a14 14 0 0 1-1.35-20L69.08 126a22 22 0 0 1 8-5.42 28.78 28.78 0 0 1 10.56-2.08 21.06 21.06 0 0 1 8.22 1.55l26.4 11.26 24.76 4.45c8.69 0 17.32-1.32 24.76-4.45l26.38-11.26c4.07-1.77 10.21-2.87 16.31-2.85 6.75 0 13.51 1.36 17.43 3.36l7.05 3.51 16.11-11.37-15.39-7.66c-7.5-3.68-16.32-5.16-25.22-5.19a60.19 60.19 0 0 0-23.16 4.25L165 115.36c-4.3 1.87-11.13 3.08-17.91 3s-13.6-1.18-17.9-3"/>
</svg>
