<svg data-name="Calque 1" xmlns="http://www.w3.org/2000/svg" viewBox="0 0 64 64">
  <path d="M63.23.46a2 2 0 0 0-2.9.32L27.4 42.21 16.62 28.65a2 2 0 0 0-2.9-.32 2.1 2.1 0 0 0-.32 2.93l11.93 15a2 2 0 0 0 1.77 1 2.11 2.11 0 0 0 .35 0 1.42 1.42 0 0 0 .2 0 2.13 2.13 0 0 0 1.69-.86l34.21-43a2.1 2.1 0 0 0-.32-2.94z" fill="#d10023"/>
  <path d="M59.16 21.18a2.08 2.08 0 0 0-2.06 2.09v34.48a2.08 2.08 0 0 1-2.1 2.08H6.19a2.07 2.07 0 0 1-2.06-2.08V8.39a2.07 2.07 0 0 1 2.06-2.08H40a2.09 2.09 0 0 0 0-4.17H6.19A6.23 6.23 0 0 0 0 8.39v49.36A6.23 6.23 0 0 0 6.19 64H55a6.23 6.23 0 0 0 6.19-6.25V23.27a2.08 2.08 0 0 0-2.03-2.09z" fill="#1d1d1b"/>
</svg>
