<?xml version="1.0" encoding="UTF-8" standalone="no"?>
<svg width="16px" height="18px" viewBox="0 0 16 18" version="1.1" xmlns="http://www.w3.org/2000/svg" xmlns:xlink="http://www.w3.org/1999/xlink" xmlns:sketch="http://www.bohemiancoding.com/sketch/ns">
    <!-- Generator: Sketch 3.4.4 (17249) - http://www.bohemiancoding.com/sketch -->
    <title>Page 1</title>
    <desc>Created with Sketch.</desc>
    <defs></defs>
    <g id="5.-PRODUITS" stroke="none" stroke-width="1" fill="none" fill-rule="evenodd" sketch:type="MSPage">
        <g id="5.1---PRODUITS---Liste" sketch:type="MSArtboardGroup" transform="translate(-58.000000, -274.000000)" fill="#000000">
            <path d="M69,279 C70.1045714,279 71,278.104571 71,277 C71,275.895429 70.1045714,275 69,275 C67.8954286,275 67,275.895429 67,277 C67,278.104571 67.8954286,279 69,279 L69,279 Z M63,285 C64.1045714,285 65,284.104571 65,283 C65,281.895429 64.1045714,281 63,281 C61.8954286,281 61,281.895429 61,283 C61,284.104571 61.8954286,285 63,285 L63,285 Z M69,291 C70.1045714,291 71,290.104571 71,289 C71,287.895429 70.1045714,287 69,287 C67.8954286,287 67,287.895429 67,289 C67,290.104571 67.8954286,291 69,291 L69,291 Z M57,288 L66,288 L66,290 L57,290 L57,288 Z M72,288 L75,288 L75,290 L72,290 L72,288 Z M66,282 L75,282 L75,284 L66,284 L66,282 Z M57,282 L60,282 L60,284 L57,284 L57,282 Z M72,276 L75,276 L75,278 L72,278 L72,276 Z M57,276 L66,276 L66,278 L57,278 L57,276 Z" id="Page-1" sketch:type="MSShapeGroup" transform="translate(66.000000, 283.000000) rotate(-270.000000) translate(-66.000000, -283.000000) "></path>
        </g>
    </g>
</svg>