<svg data-name="Calque 1" xmlns="http://www.w3.org/2000/svg" viewBox="0 0 119.51 94.42">
  <path d="M119.5 81.95V14.83h-16.23V0H2.5v2.13H0v77.51c0 9.89 8.52 14 13 14.74h96a9.92 9.92 0 0 0 7.74-3.14c3.06-3.41 2.81-8.22 2.76-9.29zM13.73 89.42c-1.32-.29-8.69-2.22-8.69-9.78V5h93.27v77.91l.05.47a18.65 18.65 0 0 0 2.43 6zm99.31-1.45a5.06 5.06 0 0 1-4 1.45c-4-.16-5.5-5.66-5.77-6.77V19.83h11.23v62.56c.07.95 0 3.9-1.5 5.58z"/>
  <path d="M64.63 54.58H11.72V12.13h52.91zm-47.91-5h42.91V17.13H16.72zM90.89 18.83H73.67a2.5 2.5 0 0 1 0-5h17.22a2.5 2.5 0 0 1 0 5zM90.89 27.05H73.67a2.5 2.5 0 0 1 0-5h17.22a2.5 2.5 0 0 1 0 5zM90.89 35.83H73.67a2.5 2.5 0 0 1 0-5h17.22a2.5 2.5 0 0 1 0 5zM90.89 44.66H73.67a2.5 2.5 0 0 1 0-5h17.22a2.5 2.5 0 0 1 0 5zM90.89 53.47H73.67a2.5 2.5 0 0 1 0-5h17.22a2.5 2.5 0 0 1 0 5z" fill="#d10023"/>
</svg>
